<svg width="512" height="512" xmlns="http://www.w3.org/2000/svg">

 <g>
  <title>Layer 1</title>
  <path id="svg_1" fill="#a6b7d0" d="m498.49,416.05a8.2,8.2 0 0 1 -13.56,9.01l-113.89,-132.28l-0.03,-0.2a477.649,477.649 0 0 0 59.84,-12.53l0.16,0.54l67.48,135.46z"/>
  <path id="svg_2" fill="#50a6ea" d="m392.38,175.03a144.1,144.1 0 0 1 3.59,32.14a450.609,450.609 0 0 1 -124.06,21.99q-7.95,0.3 -15.91,0.29t-15.91,-0.29a450.609,450.609 0 0 1 -124.06,-21.99a144.194,144.194 0 0 1 3.59,-32.15c-65.51,12.32 -108.62,33.25 -108.62,56.99c0,18.7 26.74,35.66 70.11,48.03a475.687,475.687 0 0 0 59.83,12.53a746.32,746.32 0 0 0 77.7,7.23l0.01,0l74.63,-0.06l0.3,0.05a747.066,747.066 0 0 0 77.43,-7.21a477.649,477.649 0 0 0 59.84,-12.53c43.39,-12.37 70.15,-29.33 70.15,-48.04c0,-23.74 -43.11,-44.67 -108.62,-56.98z"/>
  <path id="svg_3" fill="#e5f5fd" d="m392.38,175.03c-14.35,-62.73 -69.96,-107.83 -136.38,-107.83s-122.03,45.1 -136.38,107.82a144.194,144.194 0 0 0 -3.59,32.15a450.609,450.609 0 0 0 124.06,21.99l0.07,-1.95l31.68,0l0.07,1.95a450.609,450.609 0 0 0 124.06,-21.99a144.1,144.1 0 0 0 -3.59,-32.14z"/>
  <path id="svg_6" fill="#efc597" d="m271.84,227.21l0,-28.37l-0.1,-0.09l-31.48,0l-0.1,0.09l0,28.37l-0.07,1.95q7.95,0.3 15.91,0.29t15.91,-0.29l-0.07,-1.95z"/>
  <path id="svg_7" fill="#a6b7d0" d="m140.94,292.57l-0.04,0.28l-113.83,132.21a8.2,8.2 0 0 1 -13.56,-9.01l67.38,-135.25l0.22,-0.76a475.687,475.687 0 0 0 59.83,12.53z"/>
  <path id="svg_9" fill="#a6b7d0" d="m256,272.06a56.79,56.79 0 0 0 -39.12,15.57l27.15,186.35a11.481,11.481 0 0 0 22.71,0.07l28.38,-186.42a56.79,56.79 0 0 0 -39.12,-15.57z"/>
  <path id="svg_10" fill="#ffd8b7" d="m275.86,94.76c32.67,12.13 41.75,56.03 17.24,81.66l-21.36,22.33l-10.25,10.72a7.593,7.593 0 0 1 -10.98,0l-10.25,-10.72l-21.36,-22.33c-24.51,-25.63 -15.43,-69.53 17.24,-81.66a57.026,57.026 0 0 1 39.72,0z"/>
  <path id="svg_11" fill="#6d7486" d="m290.5,134.64s1.79,14.6 -5.18,22.39s-20.01,5.8 -20.01,5.8s-1.78,-14.59 5.19,-22.39s20,-5.8 20,-5.8z"/>
  <path id="svg_12" fill="#6d7486" d="m240.48,140.44c6.97,7.8 5.18,22.39 5.18,22.39s-13.04,2 -20,-5.8s-5.18,-22.39 -5.18,-22.39s13.04,-2 20,5.8z"/>
  <path id="svg_13" fill="#72bcef" d="m170.94,292.57a475.687,475.687 0 0 1 -59.83,-12.53c-43.37,-12.37 -70.11,-29.33 -70.11,-48.03c0,-19.7 29.683,-37.461 77.213,-49.977c0.415,-2.359 0.879,-4.7 1.407,-7.013c-65.51,12.32 -108.62,33.25 -108.62,56.99c0,18.7 26.74,35.66 70.11,48.03a475.687,475.687 0 0 0 59.83,12.53a746.32,746.32 0 0 0 77.7,7.23l0.01,0l29.506,-0.024a745.789,745.789 0 0 1 -77.216,-7.206z"/>
  <path id="svg_14" fill="#a6b7d0" d="m146.03,207.17a144.194,144.194 0 0 1 3.59,-32.15a138.659,138.659 0 0 1 121.38,-107.041a144.832,144.832 0 0 0 -15,-0.779c-66.42,0 -122.03,45.1 -136.38,107.82a144.194,144.194 0 0 0 -3.59,32.15a450.609,450.609 0 0 0 124.06,21.99l0.07,-1.95l1.153,0a450.86,450.86 0 0 1 -95.283,-20.04z"/>
  <path id="svg_15" fill="#8ca1ba" d="m154.932,165.52a6,6 0 0 1 -5.443,-8.52a115.41,115.41 0 0 1 18.418,-28.173a6,6 0 0 1 8.979,7.962a103.438,103.438 0 0 0 -16.5,25.245a6,6 0 0 1 -5.454,3.486z"/>
  <path id="svg_16" fill="#8ca1ba" d="m184.725,126.935a6,6 0 0 1 -3.816,-10.634c1.425,-1.172 2.9,-2.327 4.386,-3.432a6,6 0 1 1 7.164,9.626c-1.33,0.99 -2.651,2.024 -3.927,3.073a5.973,5.973 0 0 1 -3.807,1.367z"/>
  <path id="svg_17" fill="#efc597" d="m259.007,195.347l-6.014,0a6,6 0 0 1 0,-12l6.014,0a6,6 0 0 1 0,12z"/>
  <path id="svg_18" fill="#72bcef" d="m96.75,248.556a6,6 0 0 1 -6,-6a4.209,4.209 0 0 0 -8.417,0a6,6 0 0 1 -12,0a16.209,16.209 0 0 1 32.417,0a6,6 0 0 1 -6,6z"/>
  <path id="svg_19" fill="#72bcef" d="m135.542,248.556a6,6 0 0 1 -6,-6a4.209,4.209 0 0 0 -8.417,0a6,6 0 1 1 -12,0a16.209,16.209 0 0 1 32.417,0a6,6 0 0 1 -6,6z"/>
 </g>
</svg>