<svg width="448.001" height="301.001" xmlns="http://www.w3.org/2000/svg">

 <g>
  <title>Layer 1</title>
  <ellipse id="svg_2" fill="#7F8FA0" ry="96" rx="224" cy="199.986" cx="224.001"/>
  <path id="svg_3" fill="#738394" d="m224,267.761c-112.706,0 -205.704,-35.71 -221.406,-82.149c-1.674,4.698 -2.594,9.501 -2.594,14.402c0,53.019 100.288,96 224,96s224,-42.981 224,-96c0,-4.902 -0.92,-9.705 -2.594,-14.402c-15.701,46.438 -108.7,82.149 -221.406,82.149z"/>
  <path id="svg_4" fill="#A6B5C8" d="m96.972,120.983c-0.558,5.056 -0.909,10.16 -0.829,15.346c0.074,4.813 2.54,9.364 6.402,12.238c27.543,20.499 58.434,35.448 121.456,35.448s93.913,-14.95 121.457,-35.448c3.86,-2.873 6.326,-7.424 6.399,-12.235c0.079,-5.185 -0.274,-10.29 -0.835,-15.35c-36.108,-10.68 -79.831,-16.967 -127.022,-16.967c-47.193,-0.001 -90.919,6.287 -127.028,16.968z"/>
  <path id="svg_5" fill="#7F8FA0" d="m346.355,147.518c-15.58,-11.824 -64.203,-20.504 -122.354,-20.504c-58.15,0 -106.774,8.68 -122.354,20.505c0.348,0.31 0.522,0.767 0.898,1.047c27.543,20.499 58.434,35.448 121.456,35.448s93.913,-14.95 121.457,-35.448c0.375,-0.279 0.549,-0.738 0.897,-1.048z"/>
  <path id="svg_6" fill="#8D9DAE" d="m346.355,147.518c-15.58,-11.824 -64.203,-20.504 -122.354,-20.504c-58.15,0 -106.774,8.68 -122.354,20.505c0.348,0.31 0.522,0.767 0.898,1.047c27.543,20.499 58.434,35.448 121.456,35.448s93.913,-14.95 121.457,-35.448c0.375,-0.279 0.549,-0.738 0.897,-1.048z"/>
  <path id="svg_7" fill="#CDDCF0" d="m224,104.014c47.19,0 90.913,6.287 127.022,16.967c-6.863,-61.967 -60.243,-112.967 -127.022,-112.967c-66.53,0 -120.165,50.798 -127.028,112.969c36.109,-10.681 79.835,-16.969 127.028,-16.969z"/>
  <path id="svg_8" fill="#ACC6B9" d="m224,184.014c18.03,0 33.206,-1.34 46.65,-3.567c5.751,-13.656 9.35,-29.322 9.35,-45.433c0,-30.875 -25.125,-56 -56,-56s-56,25.125 -56,56c0,16.11 3.598,31.776 9.35,45.433c13.444,2.227 28.62,3.567 46.65,3.567z"/>
  <g id="svg_9">
   <path id="svg_10" fill="#A6B5C8" d="m224,200.014c-17.673,0 -32,14.326 -32,32s14.327,32 32,32s32,-14.326 32,-32s-14.326,-32 -32,-32z"/>
   <path id="svg_11" fill="#A6B5C8" d="m80,176.014c-17.673,0 -32,14.326 -32,32s14.327,32 32,32s32,-14.326 32,-32s-14.326,-32 -32,-32z"/>
   <path id="svg_12" fill="#A6B5C8" d="m368,176.014c-17.673,0 -32,14.326 -32,32s14.327,32 32,32s32,-14.326 32,-32s-14.326,-32 -32,-32z"/>
  </g>
  <ellipse id="svg_13" ry="10.128" rx="20.257" cy="147.403" cx="197.909" transform="matrix(-0.853,-0.522,0.522,-0.853,289.7775,376.4356) "/>
  <ellipse id="svg_14" ry="20.256" rx="10.128" cy="147.414" cx="250.008" transform="matrix(-0.5219,-0.853,0.853,-0.5219,254.7423,437.6083) "/>
  <path id="svg_15" fill="#DCE7F6" d="m219.53,79.466c-3.406,-14.012 -15.948,-24.452 -31.009,-24.452c-17.673,0 -32,14.326 -32,32c0,11.631 6.267,21.714 15.548,27.316c7.721,-19.305 25.875,-33.12 47.461,-34.864z"/>
  <path id="svg_16" fill="#ACC6B9" d="m220.521,87.014c0,-2.614 -0.4,-5.116 -0.991,-7.548c-21.586,1.744 -39.74,15.558 -47.461,34.864c4.822,2.91 10.41,4.683 16.452,4.683c17.673,0.001 32,-14.326 32,-31.999z"/>
  <path id="svg_17" fill="#C5D8D0" d="m220.521,87.014c0,-2.614 -0.4,-5.116 -0.991,-7.548c-21.586,1.744 -39.74,15.558 -47.461,34.864c4.822,2.91 10.41,4.683 16.452,4.683c17.673,0.001 32,-14.326 32,-31.999z"/>
  <path id="svg_19" fill="#5886C5" d="m224,216.014c8.822,0 16,7.178 16,16s-7.178,16 -16,16s-16,-7.178 -16,-16s7.178,-16 16,-16"/>
  <path id="svg_20" fill="#EE6058" d="m80,192.014c8.822,0 16,7.178 16,16s-7.178,16 -16,16s-16,-7.178 -16,-16c0,-8.822 7.178,-16 16,-16"/>
  <path id="svg_21" fill="#EB7A25" d="m368,192.014c8.822,0 16,7.178 16,16s-7.178,16 -16,16s-16,-7.178 -16,-16c0,-8.822 7.178,-16 16,-16"/>
  <g id="svg_22"/>
  <g id="svg_23"/>
  <g id="svg_24"/>
  <g id="svg_25"/>
  <g id="svg_26"/>
  <g id="svg_27"/>
  <g id="svg_28"/>
  <g id="svg_29"/>
  <g id="svg_30"/>
  <g id="svg_31"/>
  <g id="svg_32"/>
  <g id="svg_33"/>
  <g id="svg_34"/>
  <g id="svg_35"/>
  <g id="svg_36"/>
 </g>
</svg>